<?xml version="1.0" encoding="UTF-8" standalone="no"?><svg xmlns="http://www.w3.org/2000/svg" xmlns:xlink="http://www.w3.org/1999/xlink" contentScriptType="application/ecmascript" contentStyleType="text/css" height="616px" preserveAspectRatio="none" style="width:499px;height:616px;" version="1.1" viewBox="0 0 499 616" width="499px" zoomAndPan="magnify"><defs><filter height="300%" id="ftbchnlce8t3r" width="300%" x="-1" y="-1"><feGaussianBlur result="blurOut" stdDeviation="2.0"/><feColorMatrix in="blurOut" result="blurOut2" type="matrix" values="0 0 0 0 0 0 0 0 0 0 0 0 0 0 0 0 0 0 .4 0"/><feOffset dx="4.0" dy="4.0" in="blurOut2" result="blurOut3"/><feBlend in="SourceGraphic" in2="blurOut3" mode="normal"/></filter></defs><g><text fill="#000000" font-family="sans-serif" font-size="14" font-weight="bold" lengthAdjust="spacingAndGlyphs" textLength="147" x="178.25" y="24.5332">Running a simulation</text><rect fill="#FFFFFF" filter="url(#ftbchnlce8t3r)" height="292.5156" style="stroke: #000000; stroke-width: 2.0;" width="477.5" x="13" y="222.625"/><rect fill="#FFFFFF" filter="url(#ftbchnlce8t3r)" height="199.4609" style="stroke: #000000; stroke-width: 2.0;" width="457.5" x="23" y="308.6797"/><line style="stroke: #A80036; stroke-width: 1.0; stroke-dasharray: 5.0,5.0;" x1="57" x2="57" y1="84.2188" y2="562.4922"/><line style="stroke: #A80036; stroke-width: 1.0; stroke-dasharray: 5.0,5.0;" x1="222.5" x2="222.5" y1="84.2188" y2="562.4922"/><line style="stroke: #A80036; stroke-width: 1.0; stroke-dasharray: 5.0,5.0;" x1="387.5" x2="387.5" y1="84.2188" y2="562.4922"/><text fill="#000000" font-family="sans-serif" font-size="14" lengthAdjust="spacingAndGlyphs" textLength="23" x="43" y="81.1426">GUI</text><path d="M37,38.6094 L37,62.6094 M37,50.6094 L54,50.6094 " fill="#FEFECE" filter="url(#ftbchnlce8t3r)" style="stroke: #A80036; stroke-width: 2.0;"/><ellipse cx="66" cy="50.6094" fill="#FEFECE" filter="url(#ftbchnlce8t3r)" rx="12" ry="12" style="stroke: #A80036; stroke-width: 2.0;"/><text fill="#000000" font-family="sans-serif" font-size="14" lengthAdjust="spacingAndGlyphs" textLength="23" x="43" y="576.0254">GUI</text><path d="M37,583.1016 L37,607.1016 M37,595.1016 L54,595.1016 " fill="#FEFECE" filter="url(#ftbchnlce8t3r)" style="stroke: #A80036; stroke-width: 2.0;"/><ellipse cx="66" cy="595.1016" fill="#FEFECE" filter="url(#ftbchnlce8t3r)" rx="12" ry="12" style="stroke: #A80036; stroke-width: 2.0;"/><rect fill="#FEFECE" filter="url(#ftbchnlce8t3r)" height="31.6094" style="stroke: #A80036; stroke-width: 1.5;" width="50" x="197.5" y="43.6094"/><rect fill="#FEFECE" filter="url(#ftbchnlce8t3r)" height="31.6094" style="stroke: #A80036; stroke-width: 1.5;" width="50" x="193.5" y="47.6094"/><text fill="#000000" font-family="sans-serif" font-size="14" lengthAdjust="spacingAndGlyphs" textLength="36" x="200.5" y="69.1426">Kafka</text><rect fill="#FEFECE" filter="url(#ftbchnlce8t3r)" height="31.6094" style="stroke: #A80036; stroke-width: 1.5;" width="50" x="197.5" y="561.4922"/><rect fill="#FEFECE" filter="url(#ftbchnlce8t3r)" height="31.6094" style="stroke: #A80036; stroke-width: 1.5;" width="50" x="193.5" y="565.4922"/><text fill="#000000" font-family="sans-serif" font-size="14" lengthAdjust="spacingAndGlyphs" textLength="36" x="200.5" y="587.0254">Kafka</text><text fill="#000000" font-family="sans-serif" font-size="14" lengthAdjust="spacingAndGlyphs" textLength="86" x="341.5" y="81.1426">CrowdSimSvc</text><ellipse cx="387.5" cy="50.6094" fill="#FEFECE" filter="url(#ftbchnlce8t3r)" rx="12" ry="12" style="stroke: #A80036; stroke-width: 2.0;"/><polygon fill="#A80036" points="383.5,38.6094,389.5,33.6094,387.5,38.6094,389.5,43.6094,383.5,38.6094" style="stroke: #A80036; stroke-width: 1.0;"/><text fill="#000000" font-family="sans-serif" font-size="14" lengthAdjust="spacingAndGlyphs" textLength="86" x="341.5" y="576.0254">CrowdSimSvc</text><ellipse cx="387.5" cy="595.1016" fill="#FEFECE" filter="url(#ftbchnlce8t3r)" rx="12" ry="12" style="stroke: #A80036; stroke-width: 2.0;"/><polygon fill="#A80036" points="383.5,583.1016,389.5,578.1016,387.5,583.1016,389.5,588.1016,383.5,583.1016" style="stroke: #A80036; stroke-width: 1.0;"/><polygon fill="#A80036" points="375.5,112.2188,385.5,116.2188,375.5,120.2188,379.5,116.2188" style="stroke: #A80036; stroke-width: 1.0;"/><line style="stroke: #A80036; stroke-width: 1.0;" x1="222.5" x2="381.5" y1="116.2188" y2="116.2188"/><text fill="#000000" font-family="sans-serif" font-size="13" lengthAdjust="spacingAndGlyphs" textLength="112" x="229.5" y="111.7139">buildingsData event</text><polygon fill="#A80036" points="375.5,142.5703,385.5,146.5703,375.5,150.5703,379.5,146.5703" style="stroke: #A80036; stroke-width: 1.0;"/><line style="stroke: #A80036; stroke-width: 1.0;" x1="222.5" x2="381.5" y1="146.5703" y2="146.5703"/><text fill="#000000" font-family="sans-serif" font-size="13" lengthAdjust="spacingAndGlyphs" textLength="120" x="229.5" y="142.0654">populationData event</text><polygon fill="#A80036" points="375.5,172.9219,385.5,176.9219,375.5,180.9219,379.5,176.9219" style="stroke: #A80036; stroke-width: 1.0;"/><line style="stroke: #A80036; stroke-width: 1.0; stroke-dasharray: 2.0,2.0;" x1="222.5" x2="381.5" y1="176.9219" y2="176.9219"/><text fill="#000000" font-family="sans-serif" font-size="13" lengthAdjust="spacingAndGlyphs" textLength="94" x="229.5" y="172.417">[roadData event]</text><polygon fill="#A80036" points="210.5,203.2734,220.5,207.2734,210.5,211.2734,214.5,207.2734" style="stroke: #A80036; stroke-width: 1.0;"/><line style="stroke: #A80036; stroke-width: 1.0;" x1="57.5" x2="216.5" y1="207.2734" y2="207.2734"/><text fill="#000000" font-family="sans-serif" font-size="13" lengthAdjust="spacingAndGlyphs" textLength="135" x="64.5" y="202.7686">simulationStarted event</text><rect fill="none" height="292.5156" style="stroke: #000000; stroke-width: 2.0;" width="477.5" x="13" y="222.625"/><polygon fill="#EEEEEE" points="13,222.625,86,222.625,86,230.625,76,240.625,13,240.625,13,222.625" style="stroke: #000000; stroke-width: 2.0;"/><text fill="#000000" font-family="sans-serif" font-size="13" font-weight="bold" lengthAdjust="spacingAndGlyphs" textLength="28" x="28" y="237.1201">loop</text><text fill="#000000" font-family="sans-serif" font-size="11" font-weight="bold" lengthAdjust="spacingAndGlyphs" textLength="150" x="101" y="236.0439">[running crowd simulation]</text><polygon fill="#A80036" points="233.5,258.9766,223.5,262.9766,233.5,266.9766,229.5,262.9766" style="stroke: #A80036; stroke-width: 1.0;"/><line style="stroke: #A80036; stroke-width: 1.0;" x1="227.5" x2="386.5" y1="262.9766" y2="262.9766"/><text fill="#000000" font-family="sans-serif" font-size="13" lengthAdjust="spacingAndGlyphs" textLength="141" x="239.5" y="258.4717">populationUpdated event</text><polygon fill="#A80036" points="68.5,289.3281,58.5,293.3281,68.5,297.3281,64.5,293.3281" style="stroke: #A80036; stroke-width: 1.0;"/><line style="stroke: #A80036; stroke-width: 1.0;" x1="62.5" x2="221.5" y1="293.3281" y2="293.3281"/><text fill="#000000" font-family="sans-serif" font-size="13" lengthAdjust="spacingAndGlyphs" textLength="141" x="74.5" y="288.8232">populationUpdated event</text><rect fill="none" height="199.4609" style="stroke: #000000; stroke-width: 2.0;" width="457.5" x="23" y="308.6797"/><polygon fill="#EEEEEE" points="23,308.6797,84,308.6797,84,316.6797,74,326.6797,23,326.6797,23,308.6797" style="stroke: #000000; stroke-width: 2.0;"/><text fill="#000000" font-family="sans-serif" font-size="13" font-weight="bold" lengthAdjust="spacingAndGlyphs" textLength="16" x="38" y="323.1748">alt</text><text fill="#000000" font-family="sans-serif" font-size="11" font-weight="bold" lengthAdjust="spacingAndGlyphs" textLength="93" x="99" y="322.0986">[Incident occurs]</text><polygon fill="#A80036" points="210.5,345.0313,220.5,349.0313,210.5,353.0313,214.5,349.0313" style="stroke: #A80036; stroke-width: 1.0;"/><line style="stroke: #A80036; stroke-width: 1.0;" x1="57.5" x2="216.5" y1="349.0313" y2="349.0313"/><text fill="#000000" font-family="sans-serif" font-size="13" lengthAdjust="spacingAndGlyphs" textLength="79" x="64.5" y="344.5264">incident event</text><polygon fill="#A80036" points="375.5,375.3828,385.5,379.3828,375.5,383.3828,379.5,379.3828" style="stroke: #A80036; stroke-width: 1.0;"/><line style="stroke: #A80036; stroke-width: 1.0;" x1="222.5" x2="381.5" y1="379.3828" y2="379.3828"/><text fill="#000000" font-family="sans-serif" font-size="13" lengthAdjust="spacingAndGlyphs" textLength="79" x="229.5" y="374.8779">incident event</text><line style="stroke: #A80036; stroke-width: 1.0;" x1="387.5" x2="429.5" y1="426.4375" y2="426.4375"/><line style="stroke: #A80036; stroke-width: 1.0;" x1="429.5" x2="429.5" y1="426.4375" y2="439.4375"/><line style="stroke: #A80036; stroke-width: 1.0;" x1="388.5" x2="429.5" y1="439.4375" y2="439.4375"/><polygon fill="#A80036" points="398.5,435.4375,388.5,439.4375,398.5,443.4375,394.5,439.4375" style="stroke: #A80036; stroke-width: 1.0;"/><text fill="#000000" font-family="sans-serif" font-size="13" lengthAdjust="spacingAndGlyphs" textLength="74" x="394.5" y="405.2295">update plans</text><text fill="#000000" font-family="sans-serif" font-size="13" lengthAdjust="spacingAndGlyphs" textLength="73" x="394.5" y="421.5811">of population</text><polygon fill="#A80036" points="233.5,465.4375,223.5,469.4375,233.5,473.4375,229.5,469.4375" style="stroke: #A80036; stroke-width: 1.0;"/><line style="stroke: #A80036; stroke-width: 1.0;" x1="227.5" x2="386.5" y1="469.4375" y2="469.4375"/><text fill="#000000" font-family="sans-serif" font-size="13" lengthAdjust="spacingAndGlyphs" textLength="141" x="239.5" y="464.9326">populationUpdated event</text><polygon fill="#A80036" points="68.5,495.7891,58.5,499.7891,68.5,503.7891,64.5,499.7891" style="stroke: #A80036; stroke-width: 1.0;"/><line style="stroke: #A80036; stroke-width: 1.0;" x1="62.5" x2="221.5" y1="499.7891" y2="499.7891"/><text fill="#000000" font-family="sans-serif" font-size="13" lengthAdjust="spacingAndGlyphs" textLength="141" x="74.5" y="495.2842">populationUpdated event</text><polygon fill="#A80036" points="210.5,540.1406,220.5,544.1406,210.5,548.1406,214.5,544.1406" style="stroke: #A80036; stroke-width: 1.0;"/><line style="stroke: #A80036; stroke-width: 1.0;" x1="57.5" x2="216.5" y1="544.1406" y2="544.1406"/><text fill="#000000" font-family="sans-serif" font-size="13" lengthAdjust="spacingAndGlyphs" textLength="141" x="64.5" y="539.6357">simulationStopped event</text><!--
@startuml
title Running a simulation

boundary GUI
collections Kafka as hub
control CrowdSimSvc as css
hub -> css: buildingsData event
hub -> css: populationData event
' The CrowdSimSvc would also need some information
' on the roads, e.g. where can be people walk. Ignored
' for now.
hub - -> css: [roadData event]
GUI -> hub: simulationStarted event
loop running crowd simulation
  css -> hub: populationUpdated event
  hub -> GUI: populationUpdated event
  alt Incident occurs
    GUI -> hub: incident event
    hub -> css: incident event
    css -> css: update plans\nof population
    css -> hub: populationUpdated event
    hub -> GUI: populationUpdated event
  end
end
GUI -> hub: simulationStopped event
@enduml

PlantUML version 2017.11(Wed Apr 19 18:18:59 CEST 2017)
(GPL source distribution)
Java Runtime: Java(TM) SE Runtime Environment
JVM: Java HotSpot(TM) 64-Bit Server VM
Java Version: 1.8.0_111-b14
Operating System: Windows 10
OS Version: 10.0
Default Encoding: Cp1252
Language: en
Country: GB
--></g></svg>