<?xml version="1.0" encoding="UTF-8" standalone="no"?><svg xmlns="http://www.w3.org/2000/svg" xmlns:xlink="http://www.w3.org/1999/xlink" contentScriptType="application/ecmascript" contentStyleType="text/css" height="612px" preserveAspectRatio="none" style="width:605px;height:612px;" version="1.1" viewBox="0 0 605 612" width="605px" zoomAndPan="magnify"><defs><filter height="300%" id="fvrimxa2gjbku" width="300%" x="-1" y="-1"><feGaussianBlur result="blurOut" stdDeviation="2.0"/><feColorMatrix in="blurOut" result="blurOut2" type="matrix" values="0 0 0 0 0 0 0 0 0 0 0 0 0 0 0 0 0 0 .4 0"/><feOffset dx="4.0" dy="4.0" in="blurOut2" result="blurOut3"/><feBlend in="SourceGraphic" in2="blurOut3" mode="normal"/></filter></defs><g><text fill="#000000" font-family="sans-serif" font-size="14" font-weight="bold" lengthAdjust="spacingAndGlyphs" textLength="185" x="216.75" y="24.5332">Preparing a simulation run</text><line style="stroke: #A80036; stroke-width: 1.0; stroke-dasharray: 5.0,5.0;" x1="32" x2="32" y1="98.2188" y2="543.1406"/><line style="stroke: #A80036; stroke-width: 1.0; stroke-dasharray: 5.0,5.0;" x1="181.5" x2="181.5" y1="98.2188" y2="543.1406"/><line style="stroke: #A80036; stroke-width: 1.0; stroke-dasharray: 5.0,5.0;" x1="330.5" x2="330.5" y1="98.2188" y2="543.1406"/><line style="stroke: #A80036; stroke-width: 1.0; stroke-dasharray: 5.0,5.0;" x1="396.5" x2="396.5" y1="98.2188" y2="543.1406"/><line style="stroke: #A80036; stroke-width: 1.0; stroke-dasharray: 5.0,5.0;" x1="475.5" x2="475.5" y1="98.2188" y2="543.1406"/><line style="stroke: #A80036; stroke-width: 1.0; stroke-dasharray: 5.0,5.0;" x1="568.5" x2="568.5" y1="98.2188" y2="543.1406"/><text fill="#000000" font-family="sans-serif" font-size="14" lengthAdjust="spacingAndGlyphs" textLength="23" x="18" y="95.1426">GUI</text><path d="M12,52.6094 L12,76.6094 M12,64.6094 L29,64.6094 " fill="#FEFECE" filter="url(#fvrimxa2gjbku)" style="stroke: #A80036; stroke-width: 2.0;"/><ellipse cx="41" cy="64.6094" fill="#FEFECE" filter="url(#fvrimxa2gjbku)" rx="12" ry="12" style="stroke: #A80036; stroke-width: 2.0;"/><text fill="#000000" font-family="sans-serif" font-size="14" lengthAdjust="spacingAndGlyphs" textLength="23" x="18" y="556.6738">GUI</text><path d="M12,563.75 L12,587.75 M12,575.75 L29,575.75 " fill="#FEFECE" filter="url(#fvrimxa2gjbku)" style="stroke: #A80036; stroke-width: 2.0;"/><ellipse cx="41" cy="575.75" fill="#FEFECE" filter="url(#fvrimxa2gjbku)" rx="12" ry="12" style="stroke: #A80036; stroke-width: 2.0;"/><rect fill="#FEFECE" filter="url(#fvrimxa2gjbku)" height="31.6094" style="stroke: #A80036; stroke-width: 1.5;" width="50" x="156.5" y="57.6094"/><rect fill="#FEFECE" filter="url(#fvrimxa2gjbku)" height="31.6094" style="stroke: #A80036; stroke-width: 1.5;" width="50" x="152.5" y="61.6094"/><text fill="#000000" font-family="sans-serif" font-size="14" lengthAdjust="spacingAndGlyphs" textLength="36" x="159.5" y="83.1426">Kafka</text><rect fill="#FEFECE" filter="url(#fvrimxa2gjbku)" height="31.6094" style="stroke: #A80036; stroke-width: 1.5;" width="50" x="156.5" y="542.1406"/><rect fill="#FEFECE" filter="url(#fvrimxa2gjbku)" height="31.6094" style="stroke: #A80036; stroke-width: 1.5;" width="50" x="152.5" y="546.1406"/><text fill="#000000" font-family="sans-serif" font-size="14" lengthAdjust="spacingAndGlyphs" textLength="36" x="159.5" y="567.6738">Kafka</text><text fill="#000000" font-family="sans-serif" font-size="14" lengthAdjust="spacingAndGlyphs" textLength="52" x="301.5" y="95.1426">OsmSvc</text><ellipse cx="330.5" cy="64.6094" fill="#FEFECE" filter="url(#fvrimxa2gjbku)" rx="12" ry="12" style="stroke: #A80036; stroke-width: 2.0;"/><polygon fill="#A80036" points="326.5,52.6094,332.5,47.6094,330.5,52.6094,332.5,57.6094,326.5,52.6094" style="stroke: #A80036; stroke-width: 1.0;"/><text fill="#000000" font-family="sans-serif" font-size="14" lengthAdjust="spacingAndGlyphs" textLength="52" x="301.5" y="556.6738">OsmSvc</text><ellipse cx="330.5" cy="575.75" fill="#FEFECE" filter="url(#fvrimxa2gjbku)" rx="12" ry="12" style="stroke: #A80036; stroke-width: 2.0;"/><polygon fill="#A80036" points="326.5,563.75,332.5,558.75,330.5,563.75,332.5,568.75,326.5,563.75" style="stroke: #A80036; stroke-width: 1.0;"/><text fill="#000000" font-family="sans-serif" font-size="14" lengthAdjust="spacingAndGlyphs" textLength="48" x="369.5" y="95.1426">CbsSvc</text><ellipse cx="396.5" cy="64.6094" fill="#FEFECE" filter="url(#fvrimxa2gjbku)" rx="12" ry="12" style="stroke: #A80036; stroke-width: 2.0;"/><polygon fill="#A80036" points="392.5,52.6094,398.5,47.6094,396.5,52.6094,398.5,57.6094,392.5,52.6094" style="stroke: #A80036; stroke-width: 1.0;"/><text fill="#000000" font-family="sans-serif" font-size="14" lengthAdjust="spacingAndGlyphs" textLength="48" x="369.5" y="556.6738">CbsSvc</text><ellipse cx="396.5" cy="575.75" fill="#FEFECE" filter="url(#fvrimxa2gjbku)" rx="12" ry="12" style="stroke: #A80036; stroke-width: 2.0;"/><polygon fill="#A80036" points="392.5,563.75,398.5,558.75,396.5,563.75,398.5,568.75,392.5,563.75" style="stroke: #A80036; stroke-width: 1.0;"/><text fill="#000000" font-family="sans-serif" font-size="14" lengthAdjust="spacingAndGlyphs" textLength="78" x="433.5" y="95.1426">PlanningSvc</text><ellipse cx="475.5" cy="64.6094" fill="#FEFECE" filter="url(#fvrimxa2gjbku)" rx="12" ry="12" style="stroke: #A80036; stroke-width: 2.0;"/><polygon fill="#A80036" points="471.5,52.6094,477.5,47.6094,475.5,52.6094,477.5,57.6094,471.5,52.6094" style="stroke: #A80036; stroke-width: 1.0;"/><text fill="#000000" font-family="sans-serif" font-size="14" lengthAdjust="spacingAndGlyphs" textLength="78" x="433.5" y="556.6738">PlanningSvc</text><ellipse cx="475.5" cy="575.75" fill="#FEFECE" filter="url(#fvrimxa2gjbku)" rx="12" ry="12" style="stroke: #A80036; stroke-width: 2.0;"/><polygon fill="#A80036" points="471.5,563.75,477.5,558.75,475.5,563.75,477.5,568.75,471.5,563.75" style="stroke: #A80036; stroke-width: 1.0;"/><text fill="#000000" font-family="sans-serif" font-size="14" lengthAdjust="spacingAndGlyphs" textLength="77" x="527.5" y="95.1426">PostgreSQL</text><path d="M551,44.6094 C551,34.6094 569,34.6094 569,34.6094 C569,34.6094 587,34.6094 587,44.6094 L587,70.6094 C587,80.6094 569,80.6094 569,80.6094 C569,80.6094 551,80.6094 551,70.6094 L551,44.6094 " fill="#FEFECE" filter="url(#fvrimxa2gjbku)" style="stroke: #000000; stroke-width: 1.5;"/><path d="M551,44.6094 C551,54.6094 569,54.6094 569,54.6094 C569,54.6094 587,54.6094 587,44.6094 " fill="none" style="stroke: #000000; stroke-width: 1.5;"/><text fill="#000000" font-family="sans-serif" font-size="14" lengthAdjust="spacingAndGlyphs" textLength="77" x="527.5" y="556.6738">PostgreSQL</text><path d="M551,569.75 C551,559.75 569,559.75 569,559.75 C569,559.75 587,559.75 587,569.75 L587,595.75 C587,605.75 569,605.75 569,605.75 C569,605.75 551,605.75 551,595.75 L551,569.75 " fill="#FEFECE" filter="url(#fvrimxa2gjbku)" style="stroke: #000000; stroke-width: 1.5;"/><path d="M551,569.75 C551,579.75 569,579.75 569,579.75 C569,579.75 587,579.75 587,569.75 " fill="none" style="stroke: #000000; stroke-width: 1.5;"/><polygon fill="#A80036" points="169.5,126.2188,179.5,130.2188,169.5,134.2188,173.5,130.2188" style="stroke: #A80036; stroke-width: 1.0;"/><line style="stroke: #A80036; stroke-width: 1.0;" x1="32.5" x2="175.5" y1="130.2188" y2="130.2188"/><text fill="#000000" font-family="sans-serif" font-size="13" lengthAdjust="spacingAndGlyphs" textLength="125" x="39.5" y="125.7139">simAreaDefined event</text><polygon fill="#A80036" points="318.5,156.5703,328.5,160.5703,318.5,164.5703,322.5,160.5703" style="stroke: #A80036; stroke-width: 1.0;"/><line style="stroke: #A80036; stroke-width: 1.0;" x1="181.5" x2="324.5" y1="160.5703" y2="160.5703"/><text fill="#000000" font-family="sans-serif" font-size="13" lengthAdjust="spacingAndGlyphs" textLength="125" x="188.5" y="156.0654">simAreaDefined event</text><polygon fill="#A80036" points="384.5,186.9219,394.5,190.9219,384.5,194.9219,388.5,190.9219" style="stroke: #A80036; stroke-width: 1.0;"/><line style="stroke: #A80036; stroke-width: 1.0;" x1="181.5" x2="390.5" y1="190.9219" y2="190.9219"/><text fill="#000000" font-family="sans-serif" font-size="13" lengthAdjust="spacingAndGlyphs" textLength="125" x="188.5" y="186.417">simAreaDefined event</text><polygon fill="#A80036" points="463.5,217.2734,473.5,221.2734,463.5,225.2734,467.5,221.2734" style="stroke: #A80036; stroke-width: 1.0;"/><line style="stroke: #A80036; stroke-width: 1.0;" x1="181.5" x2="469.5" y1="221.2734" y2="221.2734"/><text fill="#000000" font-family="sans-serif" font-size="13" lengthAdjust="spacingAndGlyphs" textLength="125" x="188.5" y="216.7686">simAreaDefined event</text><polygon fill="#A80036" points="557,247.625,567,251.625,557,255.625,561,251.625" style="stroke: #A80036; stroke-width: 1.0;"/><line style="stroke: #A80036; stroke-width: 1.0;" x1="330.5" x2="563" y1="251.625" y2="251.625"/><text fill="#000000" font-family="sans-serif" font-size="13" lengthAdjust="spacingAndGlyphs" textLength="87" x="337.5" y="247.1201">query buildings</text><polygon fill="#A80036" points="192.5,277.9766,182.5,281.9766,192.5,285.9766,188.5,281.9766" style="stroke: #A80036; stroke-width: 1.0;"/><line style="stroke: #A80036; stroke-width: 1.0;" x1="186.5" x2="329.5" y1="281.9766" y2="281.9766"/><text fill="#000000" font-family="sans-serif" font-size="13" lengthAdjust="spacingAndGlyphs" textLength="112" x="198.5" y="277.4717">buildingsData event</text><polygon fill="#A80036" points="463.5,308.3281,473.5,312.3281,463.5,316.3281,467.5,312.3281" style="stroke: #A80036; stroke-width: 1.0;"/><line style="stroke: #A80036; stroke-width: 1.0;" x1="181.5" x2="469.5" y1="312.3281" y2="312.3281"/><text fill="#000000" font-family="sans-serif" font-size="13" lengthAdjust="spacingAndGlyphs" textLength="112" x="188.5" y="307.8232">buildingsData event</text><polygon fill="#A80036" points="43.5,338.6797,33.5,342.6797,43.5,346.6797,39.5,342.6797" style="stroke: #A80036; stroke-width: 1.0;"/><line style="stroke: #A80036; stroke-width: 1.0;" x1="37.5" x2="180.5" y1="342.6797" y2="342.6797"/><text fill="#000000" font-family="sans-serif" font-size="13" lengthAdjust="spacingAndGlyphs" textLength="112" x="49.5" y="338.1748">buildingsData event</text><polygon fill="#A80036" points="557,369.0313,567,373.0313,557,377.0313,561,373.0313" style="stroke: #A80036; stroke-width: 1.0;"/><line style="stroke: #A80036; stroke-width: 1.0;" x1="396.5" x2="563" y1="373.0313" y2="373.0313"/><text fill="#000000" font-family="sans-serif" font-size="13" lengthAdjust="spacingAndGlyphs" textLength="107" x="403.5" y="368.5264">query census data</text><polygon fill="#A80036" points="192.5,399.3828,182.5,403.3828,192.5,407.3828,188.5,403.3828" style="stroke: #A80036; stroke-width: 1.0;"/><line style="stroke: #A80036; stroke-width: 1.0;" x1="186.5" x2="395.5" y1="403.3828" y2="403.3828"/><text fill="#000000" font-family="sans-serif" font-size="13" lengthAdjust="spacingAndGlyphs" textLength="107" x="198.5" y="398.8779">censusStats event</text><polygon fill="#A80036" points="463.5,429.7344,473.5,433.7344,463.5,437.7344,467.5,433.7344" style="stroke: #A80036; stroke-width: 1.0;"/><line style="stroke: #A80036; stroke-width: 1.0;" x1="181.5" x2="469.5" y1="433.7344" y2="433.7344"/><text fill="#000000" font-family="sans-serif" font-size="13" lengthAdjust="spacingAndGlyphs" textLength="107" x="188.5" y="429.2295">censusStats event</text><polygon fill="#A80036" points="43.5,460.0859,33.5,464.0859,43.5,468.0859,39.5,464.0859" style="stroke: #A80036; stroke-width: 1.0;"/><line style="stroke: #A80036; stroke-width: 1.0;" x1="37.5" x2="180.5" y1="464.0859" y2="464.0859"/><text fill="#000000" font-family="sans-serif" font-size="13" lengthAdjust="spacingAndGlyphs" textLength="107" x="49.5" y="459.5811">censusStats event</text><polygon fill="#A80036" points="192.5,490.4375,182.5,494.4375,192.5,498.4375,188.5,494.4375" style="stroke: #A80036; stroke-width: 1.0;"/><line style="stroke: #A80036; stroke-width: 1.0;" x1="186.5" x2="474.5" y1="494.4375" y2="494.4375"/><text fill="#000000" font-family="sans-serif" font-size="13" lengthAdjust="spacingAndGlyphs" textLength="120" x="198.5" y="489.9326">populationData event</text><polygon fill="#A80036" points="43.5,520.7891,33.5,524.7891,43.5,528.7891,39.5,524.7891" style="stroke: #A80036; stroke-width: 1.0;"/><line style="stroke: #A80036; stroke-width: 1.0;" x1="37.5" x2="180.5" y1="524.7891" y2="524.7891"/><text fill="#000000" font-family="sans-serif" font-size="13" lengthAdjust="spacingAndGlyphs" textLength="120" x="49.5" y="520.2842">populationData event</text><!--
@startuml
title Preparing a simulation run

boundary GUI
collections Kafka as hub
control OsmSvc as osm
control CbsSvc as cbs
control PlanningSvc as pls
database PostgreSQL as pg
' actor Foo1
' entity Foo4
' database Foo5

GUI -> hub: simAreaDefined event
hub -> osm: simAreaDefined event
hub -> cbs: simAreaDefined event
hub -> pls: simAreaDefined event
osm -> pg: query buildings
osm -> hub: buildingsData event
hub -> pls: buildingsData event
hub -> GUI: buildingsData event
cbs -> pg: query census data
cbs -> hub: censusStats event
hub -> pls: censusStats event
hub -> GUI: censusStats event
pls -> hub: populationData event
hub -> GUI: populationData event

@enduml

PlantUML version 2017.11(Wed Apr 19 18:18:59 CEST 2017)
(GPL source distribution)
Java Runtime: Java(TM) SE Runtime Environment
JVM: Java HotSpot(TM) 64-Bit Server VM
Java Version: 1.8.0_111-b14
Operating System: Windows 10
OS Version: 10.0
Default Encoding: Cp1252
Language: en
Country: GB
--></g></svg>